<?xml version="1.0" standalone="no"?><!DOCTYPE svg PUBLIC "-//W3C//DTD SVG 1.1//EN" "http://www.w3.org/Graphics/SVG/1.1/DTD/svg11.dtd"><svg t="1752896563770" class="icon" viewBox="0 0 1024 1024" version="1.1" xmlns="http://www.w3.org/2000/svg" p-id="3332" width="128" height="128" xmlns:xlink="http://www.w3.org/1999/xlink"><path d="M369.15093808 123.63851852q-92.75528533 0-171.31595853 38.80702103-78.55945955 37.86038992-124.93831585 106.0081209t-46.37885629 146.70719052q0 136.29546192 137.24087941 231.89185421-11.3583597 34.07386548-34.07386549 103.16822757 29.34192355-15.14367052 119.25852919-60.57589572 86.13129482 17.03693275 120.2051603 17.03571912 11.3583597 0 32.18060326-0.94663112-10.41172859-35.9671277-10.4117286-71.9342554 0-112.63211141 84.2380326-192.13941571 85.1846637-79.50609067 207.28308622-79.50609067 18.92898133 0 33.12723437 2.83989334-22.71550578-104.11485867-121.15179142-172.26258962-98.43628563-69.09436208-225.26665007-69.09436208zM253.6777197 355.53037275q-17.03571911 0-29.34192355-13.2504083-12.30499082-12.30499082-12.30499082-29.34192356 0-17.98356385 12.30499082-30.28855467 12.30499082-12.30499082 29.34192355-12.30499081 17.98356385 0 30.28855467 12.30499081 12.30499082 12.30499082 12.30499081 30.28855467 0 17.03571911-12.30499081 29.34192356-12.30499082 13.2504083-30.28855467 13.2504083zM495.03467141 355.53037275q-17.03571911 0-29.34192356-13.2504083-12.30499082-12.30499082-12.30499082-29.34192356 0-17.98356385 12.30499082-30.28855467 12.30499082-12.30499082 29.34192356-12.30499081 17.98356385 0 30.28855467 12.30499081 12.30499082 12.30499082 12.30499081 30.28855467 0 17.03571911-12.30499081 29.34192356-12.30499082 13.2504083-30.28855467 13.2504083zM995.7333523 630.01577245q0-67.20109985-40.69906963-124.93831586-40.69906963-57.73600237-107.90138312-90.865664-66.25446875-33.12723437-142.9218797-33.12723437-121.15300503 0-206.3364551 72.88088653-85.1846637 72.88088652-85.18466372 176.04911407 0 103.16822755 85.18466372 176.04911407 85.1846637 72.88088652 206.3364551 72.88088652 34.07386548 0 103.16822756-17.03693274 31.23397215 17.03571911 94.64976118 51.11201185-6.62520415-21.7700883-25.55539911-85.1846637 119.25852918-90.865664 119.25852919-197.81798874zM614.29562785 586.47680948q-14.19703941 0-23.66213688-9.46509748-10.41172859-10.41172859-10.4117286-24.608768 0-14.19703941 10.4117286-24.608768 9.46509748-9.46509748 23.66213688-9.46509748 14.19703941 0 23.6621369 9.46509748 10.41172859 10.41172859 10.41172858 24.608768 0 14.19703941-10.41172858 24.608768t-23.6621369 9.46509748zM800.75404325 586.47680948q-14.19703941 0-24.608768-9.46509748-10.41172859-10.41172859-10.41172858-24.608768 0-14.19703941 10.41172858-24.608768 10.41172859-9.46509748 23.6621369-9.46509748 14.19703941 0 24.608768 9.46509748 10.41172859 10.41172859 10.4117286 24.608768 0 14.19703941-9.4650975 24.608768-10.41172859 9.46509748-24.608768 9.46509748z" p-id="3333" fill="#6a6a6a"></path></svg>