<?xml version="1.0" standalone="no"?><!DOCTYPE svg PUBLIC "-//W3C//DTD SVG 1.1//EN" "http://www.w3.org/Graphics/SVG/1.1/DTD/svg11.dtd"><svg t="1752852630622" class="icon" viewBox="0 0 1024 1024" version="1.1" xmlns="http://www.w3.org/2000/svg" p-id="3174" xmlns:xlink="http://www.w3.org/1999/xlink" width="64" height="64"><path d="M306.176 294.7072c-20.48 0-41.984 13.7216-41.984 37.0688 0 22.3232 21.504 37.0688 41.984 37.0688 19.6608 0 35.2256-14.7456 35.2256-37.0688 0-23.3472-15.7696-37.0688-35.2256-37.0688z m193.536 74.1376c21.504 0 35.2256-14.7456 35.2256-37.0688 0-23.3472-13.7216-37.0688-35.2256-37.0688-20.48 0-40.1408 13.7216-40.1408 37.0688 0.2048 22.3232 19.6608 37.0688 40.1408 37.0688zM743.424 512c-14.7456 0-27.4432 13.7216-27.4432 30.72 0 13.7216 12.6976 27.648 27.4432 27.648 19.456 0 34.2016-13.7216 34.2016-27.648 0-16.9984-14.7456-30.72-34.2016-30.72z m259.8912-368.8448A122.7776 122.7776 0 0 0 880.4352 20.48H143.36C75.776 20.48 20.48 75.776 20.48 143.36v737.28c0 67.584 55.296 122.88 122.88 122.88h737.28c67.584 0 122.88-55.296 122.88-122.88V261.9392l-0.2048-118.784zM397.1072 677.2736c-36.2496 0-62.6688-6.3488-96.8704-16.9984l-98.7136 54.0672 28.2624-91.136c-69.4272-53.0432-110.592-119.808-110.592-201.3184 0-144.1792 125.1328-254.3616 277.7088-254.3616 134.9632 0 255.1808 86.8352 278.7328 209.7152a132.4544 132.4544 0 0 0-26.4192-3.2768c-133.12 0-235.7248 108.1344-235.7248 238.3872 0 22.3232 2.8672 42.3936 7.7824 63.6928-7.5776 1.2288-16.384 1.2288-24.1664 1.2288z m407.7568 103.8336l19.6608 76.3904-74.3424-45.4656c-28.2624 6.3488-55.7056 15.9744-84.1728 15.9744-131.072 0-234.7008-97.4848-234.7008-218.3168 0-120.832 103.6288-218.3168 234.7008-218.3168 124.3136 0 235.7248 97.4848 235.7248 218.3168 0 67.584-41.984 128-96.8704 171.4176zM589.824 512c-13.7216 0-27.4432 13.7216-27.4432 30.72 0 13.7216 13.7216 27.648 27.4432 27.648 20.48 0 35.2256-13.7216 35.2256-27.648 0-16.9984-14.7456-30.72-35.2256-30.72z" fill="#4CBD63" p-id="3175"></path></svg>